<mxfile host="app.diagrams.net" modified="2024-01-11T13:25:47.762Z" agent="Mozilla/5.0 (X11; Ubuntu; Linux x86_64; rv:121.0) Gecko/20100101 Firefox/121.0" etag="R0M538N3FmjuoR9apXAK" version="22.1.17" type="github">
  <diagram name="Página-1" id="Cu69F4AptEABmKCBNNQQ">
    <mxGraphModel dx="2576" dy="1333" grid="1" gridSize="10" guides="1" tooltips="1" connect="1" arrows="1" fold="1" page="1" pageScale="1" pageWidth="827" pageHeight="1169" math="0" shadow="0">
      <root>
        <mxCell id="0" />
        <mxCell id="1" parent="0" />
        <mxCell id="JxMNJdl5wZcTXgDp9ZT6-1" value="" style="rounded=0;whiteSpace=wrap;html=1;fillColor=none;movable=0;resizable=0;rotatable=0;deletable=0;editable=0;locked=1;connectable=0;" parent="1" vertex="1">
          <mxGeometry x="107" y="40" width="610" height="1280" as="geometry" />
        </mxCell>
        <mxCell id="JxMNJdl5wZcTXgDp9ZT6-125" style="edgeStyle=orthogonalEdgeStyle;rounded=0;orthogonalLoop=1;jettySize=auto;html=1;entryX=0;entryY=0.5;entryDx=0;entryDy=0;" parent="1" source="HTmufTEI426gxo020apa-1" target="JxMNJdl5wZcTXgDp9ZT6-2" edge="1">
          <mxGeometry relative="1" as="geometry">
            <Array as="points">
              <mxPoint x="130" y="170" />
              <mxPoint x="130" y="210" />
            </Array>
          </mxGeometry>
        </mxCell>
        <mxCell id="HTmufTEI426gxo020apa-1" value="&lt;font style=&quot;font-size: 16px;&quot;&gt;Usuário&lt;/font&gt;" style="shape=umlActor;verticalLabelPosition=bottom;verticalAlign=top;html=1;outlineConnect=0;strokeWidth=1;" parent="1" vertex="1">
          <mxGeometry x="39" y="130" width="40" height="80" as="geometry" />
        </mxCell>
        <mxCell id="JxMNJdl5wZcTXgDp9ZT6-4" style="edgeStyle=orthogonalEdgeStyle;rounded=0;orthogonalLoop=1;jettySize=auto;html=1;entryX=0.5;entryY=1;entryDx=0;entryDy=0;endArrow=open;endFill=0;dashed=1;exitX=0;exitY=0.5;exitDx=0;exitDy=0;" parent="1" source="HTmufTEI426gxo020apa-6" target="JxMNJdl5wZcTXgDp9ZT6-2" edge="1">
          <mxGeometry relative="1" as="geometry" />
        </mxCell>
        <mxCell id="JxMNJdl5wZcTXgDp9ZT6-13" value="&amp;lt;&amp;lt;extends&amp;gt;&amp;gt;" style="edgeLabel;html=1;align=center;verticalAlign=middle;resizable=0;points=[];" parent="JxMNJdl5wZcTXgDp9ZT6-4" vertex="1" connectable="0">
          <mxGeometry x="-0.176" y="-1" relative="1" as="geometry">
            <mxPoint x="-19" y="11" as="offset" />
          </mxGeometry>
        </mxCell>
        <mxCell id="HTmufTEI426gxo020apa-6" value="&lt;div&gt;Criar&lt;/div&gt;&lt;div&gt;conta&lt;/div&gt;" style="ellipse;whiteSpace=wrap;html=1;" parent="1" vertex="1">
          <mxGeometry x="253" y="240" width="90" height="60" as="geometry" />
        </mxCell>
        <mxCell id="JxMNJdl5wZcTXgDp9ZT6-5" style="edgeStyle=orthogonalEdgeStyle;rounded=0;orthogonalLoop=1;jettySize=auto;html=1;entryX=1;entryY=0.5;entryDx=0;entryDy=0;exitX=0.5;exitY=1;exitDx=0;exitDy=0;endArrow=open;endFill=0;dashed=1;jumpStyle=line;" parent="1" source="HTmufTEI426gxo020apa-11" target="JxMNJdl5wZcTXgDp9ZT6-2" edge="1">
          <mxGeometry relative="1" as="geometry">
            <Array as="points">
              <mxPoint x="312" y="210" />
            </Array>
          </mxGeometry>
        </mxCell>
        <mxCell id="JxMNJdl5wZcTXgDp9ZT6-8" value="&amp;lt;&amp;lt;extends&amp;gt;&amp;gt;" style="edgeLabel;html=1;align=center;verticalAlign=middle;resizable=0;points=[];" parent="JxMNJdl5wZcTXgDp9ZT6-5" vertex="1" connectable="0">
          <mxGeometry x="-0.5176" relative="1" as="geometry">
            <mxPoint y="-14" as="offset" />
          </mxGeometry>
        </mxCell>
        <mxCell id="HTmufTEI426gxo020apa-11" value="&lt;div&gt;Excluir&lt;/div&gt;&lt;div&gt;conta&lt;/div&gt;" style="ellipse;whiteSpace=wrap;html=1;" parent="1" vertex="1">
          <mxGeometry x="267" y="70" width="90" height="60" as="geometry" />
        </mxCell>
        <mxCell id="JxMNJdl5wZcTXgDp9ZT6-7" style="edgeStyle=orthogonalEdgeStyle;rounded=0;orthogonalLoop=1;jettySize=auto;html=1;entryX=0.993;entryY=0.561;entryDx=0;entryDy=0;entryPerimeter=0;endArrow=open;endFill=0;dashed=1;" parent="1" source="HTmufTEI426gxo020apa-12" target="JxMNJdl5wZcTXgDp9ZT6-2" edge="1">
          <mxGeometry relative="1" as="geometry">
            <mxPoint x="393" y="210" as="targetPoint" />
            <Array as="points">
              <mxPoint x="418" y="210" />
              <mxPoint x="252" y="210" />
            </Array>
          </mxGeometry>
        </mxCell>
        <mxCell id="JxMNJdl5wZcTXgDp9ZT6-11" value="&amp;lt;&amp;lt;extends&amp;gt;&amp;gt;" style="edgeLabel;html=1;align=center;verticalAlign=middle;resizable=0;points=[];" parent="JxMNJdl5wZcTXgDp9ZT6-7" vertex="1" connectable="0">
          <mxGeometry x="-0.7238" relative="1" as="geometry">
            <mxPoint y="-14" as="offset" />
          </mxGeometry>
        </mxCell>
        <mxCell id="HTmufTEI426gxo020apa-12" value="&lt;div&gt;Editar&lt;/div&gt;&lt;div&gt;conta&lt;/div&gt;" style="ellipse;whiteSpace=wrap;html=1;" parent="1" vertex="1">
          <mxGeometry x="373" y="70" width="90" height="60" as="geometry" />
        </mxCell>
        <mxCell id="JxMNJdl5wZcTXgDp9ZT6-3" style="edgeStyle=orthogonalEdgeStyle;rounded=0;orthogonalLoop=1;jettySize=auto;html=1;dashed=1;endArrow=open;endFill=0;" parent="1" source="HTmufTEI426gxo020apa-13" target="JxMNJdl5wZcTXgDp9ZT6-2" edge="1">
          <mxGeometry relative="1" as="geometry" />
        </mxCell>
        <mxCell id="JxMNJdl5wZcTXgDp9ZT6-12" value="&amp;lt;&amp;lt;extends&amp;gt;&amp;gt;" style="edgeLabel;html=1;align=center;verticalAlign=middle;resizable=0;points=[];" parent="JxMNJdl5wZcTXgDp9ZT6-3" vertex="1" connectable="0">
          <mxGeometry x="-0.3692" y="1" relative="1" as="geometry">
            <mxPoint x="-1" y="4" as="offset" />
          </mxGeometry>
        </mxCell>
        <mxCell id="HTmufTEI426gxo020apa-13" value="&lt;div&gt;Fazer&lt;/div&gt;&lt;div&gt;login&lt;/div&gt;" style="ellipse;whiteSpace=wrap;html=1;" parent="1" vertex="1">
          <mxGeometry x="163" y="70" width="90" height="60" as="geometry" />
        </mxCell>
        <mxCell id="JxMNJdl5wZcTXgDp9ZT6-2" value="&lt;div&gt;Gerenciar&lt;/div&gt;&lt;div&gt;conta&lt;/div&gt;" style="ellipse;whiteSpace=wrap;html=1;" parent="1" vertex="1">
          <mxGeometry x="163" y="180" width="90" height="60" as="geometry" />
        </mxCell>
        <mxCell id="JxMNJdl5wZcTXgDp9ZT6-40" style="edgeStyle=orthogonalEdgeStyle;rounded=0;orthogonalLoop=1;jettySize=auto;html=1;entryX=0.5;entryY=1;entryDx=0;entryDy=0;endArrow=open;endFill=0;dashed=1;" parent="1" source="JxMNJdl5wZcTXgDp9ZT6-42" target="JxMNJdl5wZcTXgDp9ZT6-52" edge="1">
          <mxGeometry relative="1" as="geometry">
            <Array as="points">
              <mxPoint x="223" y="715" />
            </Array>
          </mxGeometry>
        </mxCell>
        <mxCell id="JxMNJdl5wZcTXgDp9ZT6-41" value="&amp;lt;&amp;lt;extends&amp;gt;&amp;gt;" style="edgeLabel;html=1;align=center;verticalAlign=middle;resizable=0;points=[];" parent="JxMNJdl5wZcTXgDp9ZT6-40" vertex="1" connectable="0">
          <mxGeometry x="-0.176" y="-1" relative="1" as="geometry">
            <mxPoint x="-17" y="11" as="offset" />
          </mxGeometry>
        </mxCell>
        <mxCell id="JxMNJdl5wZcTXgDp9ZT6-42" value="&lt;div&gt;Cadastrar&lt;/div&gt;&lt;div&gt;disciplina&lt;/div&gt;" style="ellipse;whiteSpace=wrap;html=1;" parent="1" vertex="1">
          <mxGeometry x="248" y="685" width="80" height="60" as="geometry" />
        </mxCell>
        <mxCell id="JxMNJdl5wZcTXgDp9ZT6-43" style="edgeStyle=orthogonalEdgeStyle;rounded=0;orthogonalLoop=1;jettySize=auto;html=1;entryX=1;entryY=0.5;entryDx=0;entryDy=0;exitX=0.5;exitY=1;exitDx=0;exitDy=0;endArrow=open;endFill=0;dashed=1;jumpStyle=line;" parent="1" source="JxMNJdl5wZcTXgDp9ZT6-45" target="JxMNJdl5wZcTXgDp9ZT6-52" edge="1">
          <mxGeometry relative="1" as="geometry">
            <Array as="points">
              <mxPoint x="327" y="655" />
            </Array>
          </mxGeometry>
        </mxCell>
        <mxCell id="JxMNJdl5wZcTXgDp9ZT6-44" value="&amp;lt;&amp;lt;extends&amp;gt;&amp;gt;" style="edgeLabel;html=1;align=center;verticalAlign=middle;resizable=0;points=[];" parent="JxMNJdl5wZcTXgDp9ZT6-43" vertex="1" connectable="0">
          <mxGeometry x="-0.5176" relative="1" as="geometry">
            <mxPoint y="-14" as="offset" />
          </mxGeometry>
        </mxCell>
        <mxCell id="JxMNJdl5wZcTXgDp9ZT6-45" value="&lt;div&gt;Excluir&lt;/div&gt;&lt;div&gt;disciplina&lt;/div&gt;" style="ellipse;whiteSpace=wrap;html=1;" parent="1" vertex="1">
          <mxGeometry x="282" y="515" width="90" height="60" as="geometry" />
        </mxCell>
        <mxCell id="JxMNJdl5wZcTXgDp9ZT6-46" style="edgeStyle=orthogonalEdgeStyle;rounded=0;orthogonalLoop=1;jettySize=auto;html=1;entryX=0.993;entryY=0.561;entryDx=0;entryDy=0;entryPerimeter=0;endArrow=open;endFill=0;dashed=1;" parent="1" source="JxMNJdl5wZcTXgDp9ZT6-48" target="JxMNJdl5wZcTXgDp9ZT6-52" edge="1">
          <mxGeometry relative="1" as="geometry">
            <mxPoint x="408" y="655" as="targetPoint" />
            <Array as="points">
              <mxPoint x="433" y="655" />
              <mxPoint x="267" y="655" />
            </Array>
          </mxGeometry>
        </mxCell>
        <mxCell id="JxMNJdl5wZcTXgDp9ZT6-47" value="&amp;lt;&amp;lt;extends&amp;gt;&amp;gt;" style="edgeLabel;html=1;align=center;verticalAlign=middle;resizable=0;points=[];" parent="JxMNJdl5wZcTXgDp9ZT6-46" vertex="1" connectable="0">
          <mxGeometry x="-0.7238" relative="1" as="geometry">
            <mxPoint y="-14" as="offset" />
          </mxGeometry>
        </mxCell>
        <mxCell id="JxMNJdl5wZcTXgDp9ZT6-48" value="&lt;div&gt;Editar&lt;/div&gt;&lt;div&gt;disciplina&lt;/div&gt;" style="ellipse;whiteSpace=wrap;html=1;" parent="1" vertex="1">
          <mxGeometry x="388" y="515" width="90" height="60" as="geometry" />
        </mxCell>
        <mxCell id="JxMNJdl5wZcTXgDp9ZT6-49" style="edgeStyle=orthogonalEdgeStyle;rounded=0;orthogonalLoop=1;jettySize=auto;html=1;dashed=1;endArrow=open;endFill=0;" parent="1" target="JxMNJdl5wZcTXgDp9ZT6-52" edge="1">
          <mxGeometry relative="1" as="geometry">
            <mxPoint x="223" y="575" as="sourcePoint" />
          </mxGeometry>
        </mxCell>
        <mxCell id="JxMNJdl5wZcTXgDp9ZT6-50" value="&amp;lt;&amp;lt;extends&amp;gt;&amp;gt;" style="edgeLabel;html=1;align=center;verticalAlign=middle;resizable=0;points=[];" parent="JxMNJdl5wZcTXgDp9ZT6-49" vertex="1" connectable="0">
          <mxGeometry x="-0.3692" y="1" relative="1" as="geometry">
            <mxPoint x="-1" y="4" as="offset" />
          </mxGeometry>
        </mxCell>
        <mxCell id="JxMNJdl5wZcTXgDp9ZT6-51" value="Acessar disciplina" style="ellipse;whiteSpace=wrap;html=1;" parent="1" vertex="1">
          <mxGeometry x="178" y="515" width="90" height="60" as="geometry" />
        </mxCell>
        <mxCell id="JxMNJdl5wZcTXgDp9ZT6-52" value="&lt;div&gt;Gerenciar&lt;/div&gt;&lt;div&gt;disciplina&lt;/div&gt;" style="ellipse;whiteSpace=wrap;html=1;" parent="1" vertex="1">
          <mxGeometry x="178" y="625" width="90" height="60" as="geometry" />
        </mxCell>
        <mxCell id="JxMNJdl5wZcTXgDp9ZT6-53" style="edgeStyle=orthogonalEdgeStyle;rounded=0;orthogonalLoop=1;jettySize=auto;html=1;entryX=0.5;entryY=1;entryDx=0;entryDy=0;endArrow=open;endFill=0;dashed=1;exitX=0;exitY=0.5;exitDx=0;exitDy=0;" parent="1" source="JxMNJdl5wZcTXgDp9ZT6-55" target="JxMNJdl5wZcTXgDp9ZT6-65" edge="1">
          <mxGeometry relative="1" as="geometry" />
        </mxCell>
        <mxCell id="JxMNJdl5wZcTXgDp9ZT6-54" value="&amp;lt;&amp;lt;extends&amp;gt;&amp;gt;" style="edgeLabel;html=1;align=center;verticalAlign=middle;resizable=0;points=[];" parent="JxMNJdl5wZcTXgDp9ZT6-53" vertex="1" connectable="0">
          <mxGeometry x="-0.176" y="-1" relative="1" as="geometry">
            <mxPoint x="-17" y="11" as="offset" />
          </mxGeometry>
        </mxCell>
        <mxCell id="JxMNJdl5wZcTXgDp9ZT6-105" value="" style="edgeStyle=orthogonalEdgeStyle;rounded=0;orthogonalLoop=1;jettySize=auto;html=1;dashed=1;endArrow=open;endFill=0;" parent="1" source="JxMNJdl5wZcTXgDp9ZT6-55" target="JxMNJdl5wZcTXgDp9ZT6-103" edge="1">
          <mxGeometry relative="1" as="geometry" />
        </mxCell>
        <mxCell id="JxMNJdl5wZcTXgDp9ZT6-106" value="&lt;div&gt;&amp;lt;&amp;lt;include&amp;gt;&amp;gt;&lt;/div&gt;" style="edgeLabel;html=1;align=center;verticalAlign=middle;resizable=0;points=[];" parent="JxMNJdl5wZcTXgDp9ZT6-105" vertex="1" connectable="0">
          <mxGeometry x="0.7032" y="-1" relative="1" as="geometry">
            <mxPoint x="-25" y="-11" as="offset" />
          </mxGeometry>
        </mxCell>
        <mxCell id="JxMNJdl5wZcTXgDp9ZT6-55" value="&lt;div&gt;Criar&lt;/div&gt;&lt;div&gt;cronograma&lt;/div&gt;" style="ellipse;whiteSpace=wrap;html=1;" parent="1" vertex="1">
          <mxGeometry x="249" y="985" width="80" height="60" as="geometry" />
        </mxCell>
        <mxCell id="JxMNJdl5wZcTXgDp9ZT6-56" style="edgeStyle=orthogonalEdgeStyle;rounded=0;orthogonalLoop=1;jettySize=auto;html=1;entryX=1;entryY=0.5;entryDx=0;entryDy=0;exitX=0.5;exitY=1;exitDx=0;exitDy=0;endArrow=open;endFill=0;dashed=1;jumpStyle=line;" parent="1" source="JxMNJdl5wZcTXgDp9ZT6-58" target="JxMNJdl5wZcTXgDp9ZT6-65" edge="1">
          <mxGeometry relative="1" as="geometry">
            <Array as="points">
              <mxPoint x="328" y="955" />
            </Array>
          </mxGeometry>
        </mxCell>
        <mxCell id="JxMNJdl5wZcTXgDp9ZT6-57" value="&amp;lt;&amp;lt;extends&amp;gt;&amp;gt;" style="edgeLabel;html=1;align=center;verticalAlign=middle;resizable=0;points=[];" parent="JxMNJdl5wZcTXgDp9ZT6-56" vertex="1" connectable="0">
          <mxGeometry x="-0.5176" relative="1" as="geometry">
            <mxPoint y="-14" as="offset" />
          </mxGeometry>
        </mxCell>
        <mxCell id="JxMNJdl5wZcTXgDp9ZT6-58" value="&lt;div&gt;Excluir&lt;/div&gt;&lt;div&gt;cronograma&lt;/div&gt;" style="ellipse;whiteSpace=wrap;html=1;" parent="1" vertex="1">
          <mxGeometry x="283" y="815" width="90" height="60" as="geometry" />
        </mxCell>
        <mxCell id="JxMNJdl5wZcTXgDp9ZT6-59" style="edgeStyle=orthogonalEdgeStyle;rounded=0;orthogonalLoop=1;jettySize=auto;html=1;entryX=0.993;entryY=0.561;entryDx=0;entryDy=0;entryPerimeter=0;endArrow=open;endFill=0;dashed=1;" parent="1" source="JxMNJdl5wZcTXgDp9ZT6-61" target="JxMNJdl5wZcTXgDp9ZT6-65" edge="1">
          <mxGeometry relative="1" as="geometry">
            <mxPoint x="409" y="955" as="targetPoint" />
            <Array as="points">
              <mxPoint x="434" y="955" />
              <mxPoint x="268" y="955" />
            </Array>
          </mxGeometry>
        </mxCell>
        <mxCell id="JxMNJdl5wZcTXgDp9ZT6-60" value="&amp;lt;&amp;lt;extends&amp;gt;&amp;gt;" style="edgeLabel;html=1;align=center;verticalAlign=middle;resizable=0;points=[];" parent="JxMNJdl5wZcTXgDp9ZT6-59" vertex="1" connectable="0">
          <mxGeometry x="-0.7238" relative="1" as="geometry">
            <mxPoint y="-14" as="offset" />
          </mxGeometry>
        </mxCell>
        <mxCell id="JxMNJdl5wZcTXgDp9ZT6-61" value="&lt;div&gt;Acessar&lt;/div&gt;&lt;div&gt;cronograma&lt;/div&gt;" style="ellipse;whiteSpace=wrap;html=1;" parent="1" vertex="1">
          <mxGeometry x="389" y="815" width="90" height="60" as="geometry" />
        </mxCell>
        <mxCell id="JxMNJdl5wZcTXgDp9ZT6-62" style="edgeStyle=orthogonalEdgeStyle;rounded=0;orthogonalLoop=1;jettySize=auto;html=1;dashed=1;endArrow=open;endFill=0;" parent="1" source="JxMNJdl5wZcTXgDp9ZT6-64" target="JxMNJdl5wZcTXgDp9ZT6-65" edge="1">
          <mxGeometry relative="1" as="geometry" />
        </mxCell>
        <mxCell id="JxMNJdl5wZcTXgDp9ZT6-63" value="&amp;lt;&amp;lt;extends&amp;gt;&amp;gt;" style="edgeLabel;html=1;align=center;verticalAlign=middle;resizable=0;points=[];" parent="JxMNJdl5wZcTXgDp9ZT6-62" vertex="1" connectable="0">
          <mxGeometry x="-0.3692" y="1" relative="1" as="geometry">
            <mxPoint x="-1" y="4" as="offset" />
          </mxGeometry>
        </mxCell>
        <mxCell id="JxMNJdl5wZcTXgDp9ZT6-64" value="&lt;div&gt;Editar&lt;/div&gt;&lt;div&gt;cronograma&lt;/div&gt;" style="ellipse;whiteSpace=wrap;html=1;" parent="1" vertex="1">
          <mxGeometry x="179" y="815" width="90" height="60" as="geometry" />
        </mxCell>
        <mxCell id="JxMNJdl5wZcTXgDp9ZT6-65" value="&lt;div&gt;Gerenciar&lt;/div&gt;&lt;div&gt;cronograma&lt;/div&gt;" style="ellipse;whiteSpace=wrap;html=1;" parent="1" vertex="1">
          <mxGeometry x="179" y="925" width="90" height="60" as="geometry" />
        </mxCell>
        <mxCell id="JxMNJdl5wZcTXgDp9ZT6-93" style="edgeStyle=orthogonalEdgeStyle;rounded=0;orthogonalLoop=1;jettySize=auto;html=1;endArrow=open;endFill=0;dashed=1;" parent="1" source="JxMNJdl5wZcTXgDp9ZT6-92" target="JxMNJdl5wZcTXgDp9ZT6-42" edge="1">
          <mxGeometry relative="1" as="geometry" />
        </mxCell>
        <mxCell id="JxMNJdl5wZcTXgDp9ZT6-94" value="&amp;lt;&amp;lt;extends&amp;gt;&amp;gt;" style="edgeLabel;html=1;align=center;verticalAlign=middle;resizable=0;points=[];" parent="JxMNJdl5wZcTXgDp9ZT6-93" vertex="1" connectable="0">
          <mxGeometry x="-0.1148" relative="1" as="geometry">
            <mxPoint x="-1" y="-10" as="offset" />
          </mxGeometry>
        </mxCell>
        <mxCell id="BHNAEmaU_WZ51D8aeseE-32" style="edgeStyle=orthogonalEdgeStyle;rounded=0;orthogonalLoop=1;jettySize=auto;html=1;entryX=1;entryY=0.5;entryDx=0;entryDy=0;dashed=1;endArrow=open;endFill=0;" edge="1" parent="1" source="JxMNJdl5wZcTXgDp9ZT6-92" target="JxMNJdl5wZcTXgDp9ZT6-48">
          <mxGeometry relative="1" as="geometry" />
        </mxCell>
        <mxCell id="BHNAEmaU_WZ51D8aeseE-34" value="&amp;lt;&amp;lt;extends&amp;gt;&amp;gt;" style="edgeLabel;html=1;align=center;verticalAlign=middle;resizable=0;points=[];" vertex="1" connectable="0" parent="BHNAEmaU_WZ51D8aeseE-32">
          <mxGeometry x="0.33" relative="1" as="geometry">
            <mxPoint y="72" as="offset" />
          </mxGeometry>
        </mxCell>
        <mxCell id="JxMNJdl5wZcTXgDp9ZT6-92" value="&lt;div&gt;Solicitar&lt;/div&gt;&lt;div&gt;cadastro do orientador por e-mail&lt;/div&gt;" style="ellipse;whiteSpace=wrap;html=1;fontSize=10;" parent="1" vertex="1">
          <mxGeometry x="459" y="686.25" width="80" height="58.75" as="geometry" />
        </mxCell>
        <mxCell id="JxMNJdl5wZcTXgDp9ZT6-97" style="edgeStyle=orthogonalEdgeStyle;rounded=0;orthogonalLoop=1;jettySize=auto;html=1;exitX=0.52;exitY=1;exitDx=0;exitDy=0;exitPerimeter=0;endArrow=block;endFill=1;" parent="1" edge="1">
          <mxGeometry relative="1" as="geometry">
            <mxPoint x="399" y="730" as="targetPoint" />
            <mxPoint x="631" y="795" as="sourcePoint" />
            <Array as="points">
              <mxPoint x="631" y="760" />
              <mxPoint x="579" y="760" />
              <mxPoint x="579" y="768" />
              <mxPoint x="399" y="768" />
              <mxPoint x="399" y="740" />
            </Array>
          </mxGeometry>
        </mxCell>
        <mxCell id="BHNAEmaU_WZ51D8aeseE-36" style="edgeStyle=orthogonalEdgeStyle;rounded=0;orthogonalLoop=1;jettySize=auto;html=1;endArrow=block;endFill=1;" edge="1" parent="1" source="JxMNJdl5wZcTXgDp9ZT6-96">
          <mxGeometry relative="1" as="geometry">
            <mxPoint x="540" y="650" as="targetPoint" />
            <Array as="points">
              <mxPoint x="600" y="650" />
              <mxPoint x="550" y="650" />
            </Array>
          </mxGeometry>
        </mxCell>
        <mxCell id="JxMNJdl5wZcTXgDp9ZT6-96" value="&lt;div style=&quot;font-size: 10px;&quot; align=&quot;left&quot;&gt;&lt;font style=&quot;font-size: 10px;&quot;&gt;&amp;nbsp; Se o orientador&lt;/font&gt;&lt;/div&gt;&lt;div style=&quot;font-size: 10px;&quot; align=&quot;left&quot;&gt;&lt;font style=&quot;font-size: 10px;&quot;&gt;&amp;nbsp; da disciplina não&amp;nbsp;&lt;/font&gt;&lt;/div&gt;&lt;div style=&quot;font-size: 10px;&quot; align=&quot;left&quot;&gt;&lt;font style=&quot;font-size: 10px;&quot;&gt;&amp;nbsp; estiver cadastrado&lt;/font&gt;&lt;/div&gt;" style="shape=note;size=17;whiteSpace=wrap;html=1;align=left;" parent="1" vertex="1">
          <mxGeometry x="550" y="740" width="100" height="55" as="geometry" />
        </mxCell>
        <mxCell id="JxMNJdl5wZcTXgDp9ZT6-100" style="edgeStyle=orthogonalEdgeStyle;rounded=0;orthogonalLoop=1;jettySize=auto;html=1;entryX=1;entryY=0.5;entryDx=0;entryDy=0;dashed=1;endArrow=open;endFill=0;" parent="1" source="JxMNJdl5wZcTXgDp9ZT6-98" target="JxMNJdl5wZcTXgDp9ZT6-61" edge="1">
          <mxGeometry relative="1" as="geometry" />
        </mxCell>
        <mxCell id="JxMNJdl5wZcTXgDp9ZT6-102" value="&amp;lt;&amp;lt;extends&amp;gt;&amp;gt;" style="edgeLabel;html=1;align=center;verticalAlign=middle;resizable=0;points=[];" parent="JxMNJdl5wZcTXgDp9ZT6-100" vertex="1" connectable="0">
          <mxGeometry x="-0.6354" y="-1" relative="1" as="geometry">
            <mxPoint as="offset" />
          </mxGeometry>
        </mxCell>
        <mxCell id="JxMNJdl5wZcTXgDp9ZT6-98" value="&lt;div&gt;Enviar dúvida&lt;/div&gt;&lt;div&gt;para orientador&lt;/div&gt;" style="ellipse;whiteSpace=wrap;html=1;" parent="1" vertex="1">
          <mxGeometry x="469" y="915" width="100" height="60" as="geometry" />
        </mxCell>
        <mxCell id="JxMNJdl5wZcTXgDp9ZT6-103" value="Definir horários disponíveis" style="ellipse;whiteSpace=wrap;html=1;" parent="1" vertex="1">
          <mxGeometry x="399" y="985" width="110" height="60" as="geometry" />
        </mxCell>
        <mxCell id="JxMNJdl5wZcTXgDp9ZT6-107" style="edgeStyle=orthogonalEdgeStyle;rounded=0;orthogonalLoop=1;jettySize=auto;html=1;entryX=1;entryY=0.5;entryDx=0;entryDy=0;endArrow=open;endFill=0;dashed=1;exitX=0.5;exitY=1;exitDx=0;exitDy=0;" parent="1" source="JxMNJdl5wZcTXgDp9ZT6-109" target="JxMNJdl5wZcTXgDp9ZT6-119" edge="1">
          <mxGeometry relative="1" as="geometry">
            <Array as="points">
              <mxPoint x="534" y="1220" />
            </Array>
          </mxGeometry>
        </mxCell>
        <mxCell id="JxMNJdl5wZcTXgDp9ZT6-108" value="&amp;lt;&amp;lt;extends&amp;gt;&amp;gt;" style="edgeLabel;html=1;align=center;verticalAlign=middle;resizable=0;points=[];" parent="JxMNJdl5wZcTXgDp9ZT6-107" vertex="1" connectable="0">
          <mxGeometry x="-0.176" y="-1" relative="1" as="geometry">
            <mxPoint x="61" y="-59" as="offset" />
          </mxGeometry>
        </mxCell>
        <mxCell id="JxMNJdl5wZcTXgDp9ZT6-109" value="&lt;div&gt;Cadastrar&lt;/div&gt;&lt;div&gt;atividade&lt;/div&gt;" style="ellipse;whiteSpace=wrap;html=1;" parent="1" vertex="1">
          <mxGeometry x="489" y="1080" width="90" height="60" as="geometry" />
        </mxCell>
        <mxCell id="JxMNJdl5wZcTXgDp9ZT6-110" style="edgeStyle=orthogonalEdgeStyle;rounded=0;orthogonalLoop=1;jettySize=auto;html=1;entryX=1;entryY=0.5;entryDx=0;entryDy=0;exitX=0.5;exitY=1;exitDx=0;exitDy=0;endArrow=open;endFill=0;dashed=1;jumpStyle=line;" parent="1" source="JxMNJdl5wZcTXgDp9ZT6-112" target="JxMNJdl5wZcTXgDp9ZT6-119" edge="1">
          <mxGeometry relative="1" as="geometry">
            <Array as="points">
              <mxPoint x="327" y="1220" />
            </Array>
          </mxGeometry>
        </mxCell>
        <mxCell id="JxMNJdl5wZcTXgDp9ZT6-111" value="&amp;lt;&amp;lt;extends&amp;gt;&amp;gt;" style="edgeLabel;html=1;align=center;verticalAlign=middle;resizable=0;points=[];" parent="JxMNJdl5wZcTXgDp9ZT6-110" vertex="1" connectable="0">
          <mxGeometry x="-0.5176" relative="1" as="geometry">
            <mxPoint y="-14" as="offset" />
          </mxGeometry>
        </mxCell>
        <mxCell id="JxMNJdl5wZcTXgDp9ZT6-112" value="&lt;div&gt;Excluir&lt;/div&gt;&lt;div&gt;atividade&lt;/div&gt;" style="ellipse;whiteSpace=wrap;html=1;" parent="1" vertex="1">
          <mxGeometry x="282" y="1080" width="90" height="60" as="geometry" />
        </mxCell>
        <mxCell id="JxMNJdl5wZcTXgDp9ZT6-113" style="edgeStyle=orthogonalEdgeStyle;rounded=0;orthogonalLoop=1;jettySize=auto;html=1;entryX=0.993;entryY=0.561;entryDx=0;entryDy=0;entryPerimeter=0;endArrow=open;endFill=0;dashed=1;" parent="1" source="JxMNJdl5wZcTXgDp9ZT6-115" target="JxMNJdl5wZcTXgDp9ZT6-119" edge="1">
          <mxGeometry relative="1" as="geometry">
            <mxPoint x="408" y="1220" as="targetPoint" />
            <Array as="points">
              <mxPoint x="433" y="1220" />
              <mxPoint x="267" y="1220" />
            </Array>
          </mxGeometry>
        </mxCell>
        <mxCell id="JxMNJdl5wZcTXgDp9ZT6-114" value="&amp;lt;&amp;lt;extends&amp;gt;&amp;gt;" style="edgeLabel;html=1;align=center;verticalAlign=middle;resizable=0;points=[];" parent="JxMNJdl5wZcTXgDp9ZT6-113" vertex="1" connectable="0">
          <mxGeometry x="-0.7238" relative="1" as="geometry">
            <mxPoint y="-14" as="offset" />
          </mxGeometry>
        </mxCell>
        <mxCell id="JxMNJdl5wZcTXgDp9ZT6-115" value="&lt;div&gt;Editar&lt;/div&gt;&lt;div&gt;atividade&lt;/div&gt;" style="ellipse;whiteSpace=wrap;html=1;" parent="1" vertex="1">
          <mxGeometry x="388" y="1080" width="90" height="60" as="geometry" />
        </mxCell>
        <mxCell id="JxMNJdl5wZcTXgDp9ZT6-116" style="edgeStyle=orthogonalEdgeStyle;rounded=0;orthogonalLoop=1;jettySize=auto;html=1;dashed=1;endArrow=open;endFill=0;" parent="1" source="JxMNJdl5wZcTXgDp9ZT6-118" target="JxMNJdl5wZcTXgDp9ZT6-119" edge="1">
          <mxGeometry relative="1" as="geometry" />
        </mxCell>
        <mxCell id="JxMNJdl5wZcTXgDp9ZT6-117" value="&amp;lt;&amp;lt;extends&amp;gt;&amp;gt;" style="edgeLabel;html=1;align=center;verticalAlign=middle;resizable=0;points=[];" parent="JxMNJdl5wZcTXgDp9ZT6-116" vertex="1" connectable="0">
          <mxGeometry x="-0.3692" y="1" relative="1" as="geometry">
            <mxPoint x="-1" y="4" as="offset" />
          </mxGeometry>
        </mxCell>
        <mxCell id="JxMNJdl5wZcTXgDp9ZT6-118" value="Acessar atividade" style="ellipse;whiteSpace=wrap;html=1;" parent="1" vertex="1">
          <mxGeometry x="178" y="1080" width="90" height="60" as="geometry" />
        </mxCell>
        <mxCell id="JxMNJdl5wZcTXgDp9ZT6-119" value="&lt;div&gt;Gerenciar&lt;/div&gt;&lt;div&gt;atividade&lt;/div&gt;" style="ellipse;whiteSpace=wrap;html=1;" parent="1" vertex="1">
          <mxGeometry x="178" y="1190" width="90" height="60" as="geometry" />
        </mxCell>
        <mxCell id="JxMNJdl5wZcTXgDp9ZT6-126" style="edgeStyle=orthogonalEdgeStyle;rounded=0;orthogonalLoop=1;jettySize=auto;html=1;entryX=0;entryY=0.5;entryDx=0;entryDy=0;endArrow=none;endFill=0;" parent="1" target="JxMNJdl5wZcTXgDp9ZT6-52" edge="1" source="JxMNJdl5wZcTXgDp9ZT6-120">
          <mxGeometry relative="1" as="geometry">
            <mxPoint x="90" y="310" as="sourcePoint" />
            <Array as="points">
              <mxPoint x="129" y="340" />
              <mxPoint x="129" y="655" />
            </Array>
          </mxGeometry>
        </mxCell>
        <mxCell id="JxMNJdl5wZcTXgDp9ZT6-127" style="edgeStyle=orthogonalEdgeStyle;rounded=0;orthogonalLoop=1;jettySize=auto;html=1;entryX=0;entryY=0.5;entryDx=0;entryDy=0;endArrow=none;endFill=0;" parent="1" target="JxMNJdl5wZcTXgDp9ZT6-65" edge="1" source="JxMNJdl5wZcTXgDp9ZT6-120">
          <mxGeometry relative="1" as="geometry">
            <mxPoint x="79" y="430" as="sourcePoint" />
          </mxGeometry>
        </mxCell>
        <mxCell id="JxMNJdl5wZcTXgDp9ZT6-128" style="edgeStyle=orthogonalEdgeStyle;rounded=0;orthogonalLoop=1;jettySize=auto;html=1;entryX=0;entryY=0.5;entryDx=0;entryDy=0;endArrow=none;endFill=0;" parent="1" target="JxMNJdl5wZcTXgDp9ZT6-119" edge="1" source="JxMNJdl5wZcTXgDp9ZT6-120">
          <mxGeometry relative="1" as="geometry">
            <mxPoint x="79" y="430" as="sourcePoint" />
          </mxGeometry>
        </mxCell>
        <mxCell id="BHNAEmaU_WZ51D8aeseE-15" style="edgeStyle=orthogonalEdgeStyle;rounded=0;orthogonalLoop=1;jettySize=auto;html=1;endArrow=block;endFill=1;" edge="1" parent="1" source="JxMNJdl5wZcTXgDp9ZT6-120" target="HTmufTEI426gxo020apa-1">
          <mxGeometry relative="1" as="geometry">
            <Array as="points">
              <mxPoint x="20" y="340" />
              <mxPoint x="20" y="170" />
            </Array>
          </mxGeometry>
        </mxCell>
        <mxCell id="JxMNJdl5wZcTXgDp9ZT6-120" value="&lt;font style=&quot;font-size: 16px;&quot;&gt;Aluno&lt;/font&gt;" style="shape=umlActor;verticalLabelPosition=bottom;verticalAlign=top;html=1;outlineConnect=0;strokeWidth=1;" parent="1" vertex="1">
          <mxGeometry x="39" y="300" width="40" height="80" as="geometry" />
        </mxCell>
        <mxCell id="BHNAEmaU_WZ51D8aeseE-44" style="edgeStyle=orthogonalEdgeStyle;rounded=0;orthogonalLoop=1;jettySize=auto;html=1;entryX=1;entryY=0.5;entryDx=0;entryDy=0;endArrow=none;endFill=0;" edge="1" parent="1" source="JxMNJdl5wZcTXgDp9ZT6-121" target="BHNAEmaU_WZ51D8aeseE-31">
          <mxGeometry relative="1" as="geometry" />
        </mxCell>
        <mxCell id="JxMNJdl5wZcTXgDp9ZT6-121" value="&lt;font style=&quot;font-size: 16px;&quot;&gt;Orientador&lt;/font&gt;" style="shape=umlActor;verticalLabelPosition=bottom;verticalAlign=top;html=1;outlineConnect=0;strokeWidth=1;" parent="1" vertex="1">
          <mxGeometry x="750" y="300" width="40" height="80" as="geometry" />
        </mxCell>
        <mxCell id="BHNAEmaU_WZ51D8aeseE-16" style="edgeStyle=orthogonalEdgeStyle;rounded=0;orthogonalLoop=1;jettySize=auto;html=1;entryX=0.5;entryY=0;entryDx=0;entryDy=0;entryPerimeter=0;" edge="1" parent="1" source="JxMNJdl5wZcTXgDp9ZT6-121" target="HTmufTEI426gxo020apa-1">
          <mxGeometry relative="1" as="geometry">
            <Array as="points">
              <mxPoint x="770" y="20" />
              <mxPoint x="59" y="20" />
            </Array>
          </mxGeometry>
        </mxCell>
        <mxCell id="BHNAEmaU_WZ51D8aeseE-19" style="edgeStyle=orthogonalEdgeStyle;rounded=0;orthogonalLoop=1;jettySize=auto;html=1;entryX=0.5;entryY=1;entryDx=0;entryDy=0;endArrow=open;endFill=0;dashed=1;exitX=1;exitY=0.5;exitDx=0;exitDy=0;" edge="1" source="BHNAEmaU_WZ51D8aeseE-21" target="BHNAEmaU_WZ51D8aeseE-31" parent="1">
          <mxGeometry relative="1" as="geometry" />
        </mxCell>
        <mxCell id="BHNAEmaU_WZ51D8aeseE-20" value="&amp;lt;&amp;lt;extends&amp;gt;&amp;gt;" style="edgeLabel;html=1;align=center;verticalAlign=middle;resizable=0;points=[];" vertex="1" connectable="0" parent="BHNAEmaU_WZ51D8aeseE-19">
          <mxGeometry x="-0.176" y="-1" relative="1" as="geometry">
            <mxPoint x="18" y="9" as="offset" />
          </mxGeometry>
        </mxCell>
        <mxCell id="BHNAEmaU_WZ51D8aeseE-39" style="edgeStyle=orthogonalEdgeStyle;rounded=0;orthogonalLoop=1;jettySize=auto;html=1;entryX=1;entryY=0.5;entryDx=0;entryDy=0;endArrow=none;endFill=0;dashed=1;startArrow=open;startFill=0;" edge="1" parent="1" source="BHNAEmaU_WZ51D8aeseE-21" target="BHNAEmaU_WZ51D8aeseE-37">
          <mxGeometry relative="1" as="geometry" />
        </mxCell>
        <mxCell id="BHNAEmaU_WZ51D8aeseE-40" value="&amp;lt;&amp;lt;extends&amp;gt;&amp;gt;" style="edgeLabel;html=1;align=center;verticalAlign=middle;resizable=0;points=[];" vertex="1" connectable="0" parent="BHNAEmaU_WZ51D8aeseE-39">
          <mxGeometry x="-0.0452" relative="1" as="geometry">
            <mxPoint x="-4" y="-10" as="offset" />
          </mxGeometry>
        </mxCell>
        <mxCell id="BHNAEmaU_WZ51D8aeseE-21" value="&lt;div&gt;Cadastrar&lt;/div&gt;&lt;div&gt;aluno&lt;/div&gt;" style="ellipse;whiteSpace=wrap;html=1;" vertex="1" parent="1">
          <mxGeometry x="500" y="370" width="90" height="60" as="geometry" />
        </mxCell>
        <mxCell id="BHNAEmaU_WZ51D8aeseE-22" style="edgeStyle=orthogonalEdgeStyle;rounded=0;orthogonalLoop=1;jettySize=auto;html=1;entryX=0;entryY=0.5;entryDx=0;entryDy=0;endArrow=open;endFill=0;dashed=1;jumpStyle=line;exitX=0.5;exitY=1;exitDx=0;exitDy=0;" edge="1" source="BHNAEmaU_WZ51D8aeseE-24" target="BHNAEmaU_WZ51D8aeseE-31" parent="1">
          <mxGeometry relative="1" as="geometry">
            <Array as="points" />
            <mxPoint x="490" y="340" as="sourcePoint" />
          </mxGeometry>
        </mxCell>
        <mxCell id="BHNAEmaU_WZ51D8aeseE-23" value="&amp;lt;&amp;lt;extends&amp;gt;&amp;gt;" style="edgeLabel;html=1;align=center;verticalAlign=middle;resizable=0;points=[];" vertex="1" connectable="0" parent="BHNAEmaU_WZ51D8aeseE-22">
          <mxGeometry x="-0.5176" relative="1" as="geometry">
            <mxPoint x="46" y="-2" as="offset" />
          </mxGeometry>
        </mxCell>
        <mxCell id="BHNAEmaU_WZ51D8aeseE-24" value="Desvincular aluno" style="ellipse;whiteSpace=wrap;html=1;" vertex="1" parent="1">
          <mxGeometry x="389" y="250" width="90" height="60" as="geometry" />
        </mxCell>
        <mxCell id="BHNAEmaU_WZ51D8aeseE-25" style="edgeStyle=orthogonalEdgeStyle;rounded=0;orthogonalLoop=1;jettySize=auto;html=1;endArrow=open;endFill=0;dashed=1;exitX=1;exitY=0.5;exitDx=0;exitDy=0;entryX=0.5;entryY=0;entryDx=0;entryDy=0;" edge="1" source="BHNAEmaU_WZ51D8aeseE-27" target="BHNAEmaU_WZ51D8aeseE-31" parent="1">
          <mxGeometry relative="1" as="geometry">
            <mxPoint x="623.76" y="370" as="targetPoint" />
            <Array as="points" />
            <mxPoint x="624" y="290" as="sourcePoint" />
          </mxGeometry>
        </mxCell>
        <mxCell id="BHNAEmaU_WZ51D8aeseE-26" value="&amp;lt;&amp;lt;extends&amp;gt;&amp;gt;" style="edgeLabel;html=1;align=center;verticalAlign=middle;resizable=0;points=[];" vertex="1" connectable="0" parent="BHNAEmaU_WZ51D8aeseE-25">
          <mxGeometry x="-0.7238" relative="1" as="geometry">
            <mxPoint x="31" y="-10" as="offset" />
          </mxGeometry>
        </mxCell>
        <mxCell id="BHNAEmaU_WZ51D8aeseE-27" value="&lt;div&gt;Acessar&lt;/div&gt;&lt;div&gt;aluno&lt;/div&gt;" style="ellipse;whiteSpace=wrap;html=1;" vertex="1" parent="1">
          <mxGeometry x="500" y="250" width="90" height="60" as="geometry" />
        </mxCell>
        <mxCell id="BHNAEmaU_WZ51D8aeseE-31" value="&lt;div&gt;Gerenciar&lt;/div&gt;&lt;div&gt;aluno&lt;/div&gt;" style="ellipse;whiteSpace=wrap;html=1;" vertex="1" parent="1">
          <mxGeometry x="579" y="310" width="90" height="60" as="geometry" />
        </mxCell>
        <mxCell id="BHNAEmaU_WZ51D8aeseE-37" value="&lt;div&gt;Solicitar&lt;/div&gt;&lt;div&gt;cadastro&lt;/div&gt;&lt;div&gt;do aluno por e-mail&lt;/div&gt;" style="ellipse;whiteSpace=wrap;html=1;fontSize=10;" vertex="1" parent="1">
          <mxGeometry x="343" y="371.25" width="80" height="58.75" as="geometry" />
        </mxCell>
        <mxCell id="BHNAEmaU_WZ51D8aeseE-41" style="edgeStyle=orthogonalEdgeStyle;rounded=0;orthogonalLoop=1;jettySize=auto;html=1;endArrow=block;endFill=1;" edge="1" parent="1" source="BHNAEmaU_WZ51D8aeseE-38">
          <mxGeometry relative="1" as="geometry">
            <mxPoint x="460" y="410" as="targetPoint" />
            <Array as="points">
              <mxPoint x="460" y="460" />
            </Array>
          </mxGeometry>
        </mxCell>
        <mxCell id="BHNAEmaU_WZ51D8aeseE-38" value="&lt;div style=&quot;font-size: 10px;&quot; align=&quot;left&quot;&gt;&lt;font style=&quot;font-size: 10px;&quot;&gt;&amp;nbsp; Se o aluno não&amp;nbsp;&lt;/font&gt;&lt;/div&gt;&lt;div style=&quot;font-size: 10px;&quot; align=&quot;left&quot;&gt;&lt;font style=&quot;font-size: 10px;&quot;&gt;&amp;nbsp; estiver cadastrado&lt;/font&gt;&lt;/div&gt;" style="shape=note;size=17;whiteSpace=wrap;html=1;align=left;" vertex="1" parent="1">
          <mxGeometry x="569" y="440" width="100" height="35" as="geometry" />
        </mxCell>
        <mxCell id="BHNAEmaU_WZ51D8aeseE-43" style="edgeStyle=orthogonalEdgeStyle;rounded=0;orthogonalLoop=1;jettySize=auto;html=1;endArrow=block;endFill=1;exitX=0;exitY=0.5;exitDx=0;exitDy=0;exitPerimeter=0;" edge="1" parent="1">
          <mxGeometry relative="1" as="geometry">
            <mxPoint x="544" y="240" as="targetPoint" />
            <mxPoint x="594" y="195" as="sourcePoint" />
            <Array as="points">
              <mxPoint x="544" y="195" />
            </Array>
          </mxGeometry>
        </mxCell>
        <mxCell id="BHNAEmaU_WZ51D8aeseE-42" value="&lt;div style=&quot;font-size: 10px;&quot; align=&quot;left&quot;&gt;&lt;font style=&quot;font-size: 10px;&quot;&gt;&amp;nbsp;Mostrar dados&lt;/font&gt;&lt;/div&gt;&lt;div style=&quot;font-size: 10px;&quot; align=&quot;left&quot;&gt;&lt;font style=&quot;font-size: 10px;&quot;&gt;&amp;nbsp;do estudo do aluno&lt;/font&gt;&lt;/div&gt;&lt;div style=&quot;font-size: 10px;&quot; align=&quot;left&quot;&gt;&lt;font style=&quot;font-size: 10px;&quot;&gt;&amp;nbsp;na disciplina&lt;br&gt;&lt;/font&gt;&lt;/div&gt;" style="shape=note;size=17;whiteSpace=wrap;html=1;align=left;" vertex="1" parent="1">
          <mxGeometry x="560" y="170" width="100" height="50" as="geometry" />
        </mxCell>
        <mxCell id="BHNAEmaU_WZ51D8aeseE-46" style="edgeStyle=orthogonalEdgeStyle;rounded=0;orthogonalLoop=1;jettySize=auto;html=1;endArrow=none;endFill=0;" edge="1" parent="1" source="BHNAEmaU_WZ51D8aeseE-45" target="JxMNJdl5wZcTXgDp9ZT6-120">
          <mxGeometry relative="1" as="geometry" />
        </mxCell>
        <mxCell id="BHNAEmaU_WZ51D8aeseE-45" value="&lt;div&gt;Acessar&lt;/div&gt;&lt;div&gt;dados de estudo&lt;/div&gt;" style="ellipse;whiteSpace=wrap;html=1;" vertex="1" parent="1">
          <mxGeometry x="178" y="350" width="90" height="60" as="geometry" />
        </mxCell>
        <mxCell id="BHNAEmaU_WZ51D8aeseE-48" style="edgeStyle=orthogonalEdgeStyle;rounded=0;orthogonalLoop=1;jettySize=auto;html=1;endArrow=block;endFill=1;exitX=0;exitY=0;exitDx=124;exitDy=0;exitPerimeter=0;" edge="1" parent="1" source="BHNAEmaU_WZ51D8aeseE-47">
          <mxGeometry relative="1" as="geometry">
            <mxPoint x="280" y="380" as="targetPoint" />
            <Array as="points">
              <mxPoint x="302" y="380" />
            </Array>
          </mxGeometry>
        </mxCell>
        <mxCell id="BHNAEmaU_WZ51D8aeseE-47" value="&lt;div&gt;&amp;nbsp; &lt;font style=&quot;font-size: 10px;&quot;&gt;Tempo gasto por semana&lt;/font&gt;&lt;/div&gt;&lt;div&gt;&lt;font style=&quot;font-size: 10px;&quot;&gt;&amp;nbsp; e mês; disciplinas mais&lt;/font&gt;&lt;/div&gt;&lt;div&gt;&lt;font style=&quot;font-size: 10px;&quot;&gt;&amp;nbsp; estudadas; atividades feitas.&lt;/font&gt;&lt;/div&gt;" style="shape=note;size=17;whiteSpace=wrap;html=1;align=left;" vertex="1" parent="1">
          <mxGeometry x="178" y="430" width="141" height="50" as="geometry" />
        </mxCell>
      </root>
    </mxGraphModel>
  </diagram>
</mxfile>
